<svg id="b7558b88-eac3-489f-b406-12a2a3f0db80" data-name="Capa 1" xmlns="http://www.w3.org/2000/svg" viewBox="0 0 1840.71 1007.79"><defs><style>.a17c1210-a53d-48cb-a5eb-35aa422698b1{fill:#fefefe;}.a899dc75-8bff-4ca8-a2b5-b84cd292e09e{fill:#fe9400;}.aab675bb-76a6-42fb-b9af-a72e50329b39{fill:#cfdcf4;}.a4edf556-b4c9-4ca9-b6d4-8fda2080b745{fill:#2f21b4;}.b69e8ea0-43d7-4a37-a749-60c593db49de{fill:#2c42c4;}.b7b784bf-8f5c-469c-ada5-b306b6000e40{fill:#d3dcf9;}.ad3736bb-c587-4777-a078-70ab82bcd36e{fill:#f6a5a5;}.b02e925d-6b01-462c-a951-3b03d6c42656{fill:#1d3138;}.b332bda6-9b8e-407e-96ec-f8fbc3199ae0{fill:#2ba99c;}.f4f87e44-41c1-4219-97b4-207096487e82{fill:#feb5b4;}.b7e216e6-324d-40d5-adc9-686d6890d158{fill:#bccaf1;}.ee7089f3-e77f-45db-a79f-1533a60948a0{fill:#febb00;}.a229e0a2-f77e-43a6-a0c7-dc7dfaf8d8c8{fill:#6491e7;}.b6fe4974-abe3-4ae7-b256-e31ec73a7c50{fill:#dce4fb;}.b30c5d1f-9b97-4128-9c80-d24912837547{fill:#d1def5;}.f358516a-4ecd-4ac8-a0ff-abd931d8edfb{fill:#138b82;}.b5fd1a8e-48c0-45bf-9954-506e201b7b4d{fill:#e0e8fc;}.bf0a63d2-c943-4666-8459-a4ab33a268d7{fill:#d1ddf4;}.ba94bbea-69f4-4048-9cff-c6697c16f6b0{fill:#6490e6;}.aa9537b1-dc32-40e9-8679-7421cef93e1a{fill:#138b83;}.b9f78b3e-ec30-4250-b124-addc5010c58c{fill:#f6a6a6;}.ef47096a-ce2c-4e6e-a488-44cbb1de7c85{fill:#d0ddf4;}.a3f441c8-134f-466e-b2e0-e5d191cc2f8e{fill:#afc5f1;}.a47e5376-f0a3-4300-afc1-94b39d94b1b6{fill:#99b5ed;}.ff37db9c-46a5-42a4-aa3f-c980a1794aaf{fill:#cedcf4;}.b7f60bba-97c9-43de-ac56-cbd1293b94a8{fill:#d2def4;}.a65bc54c-740c-4028-8a95-757b4068019f{fill:#febc01;}.b248e3fb-6da5-4187-be1c-b66525948d42{fill:#afc5f2;}.f7ddc2b8-f8b2-4b87-86fd-fde80ffc251f{fill:#97bdc9;}.a1f79a24-043e-47d8-b047-f14dc0001bec{fill:#94b9c6;}.b085f165-0414-48de-8d00-9cbf3381eb1c{fill:#1b0089;}.a3b14461-7b5f-4bc1-b433-7fb226f78273{fill:#b1c6f2;}.bfd969ce-a7d3-4d60-b9b0-fa97cfb7979e{fill:#9ab6ed;}.a88bbdbe-a10b-4f43-96a8-7883dbb979c5{fill:#98b5ed;}.fb539384-9612-4db4-810c-ae02c766b4f7{fill:#7ea4f7;}.f84cbb7d-e173-480b-88a8-a1299319459c{fill:#1c0187;}.fe9cd472-5858-4405-a33d-f23cc3d29a61{fill:#fdfdfe;}.accde00b-b8a3-4e23-9bc8-a148cafb61bc{fill:#98b4ed;}.b92bb4cc-2535-476c-be7b-4bc386d6b003{fill:#a1bbef;}.f44b83db-d537-4e57-a77e-6116705e9835{fill:#fcf9f9;}.adc1c1be-0d7b-44f1-8fdc-2955c655d1b6{fill:#b0c5f2;}.e1e72ee0-2ada-4ffa-8fb8-d8c5bf792798{fill:#fcfdfd;}.a9b7f092-6a7b-495f-8efc-51464c73a249{fill:#b0c6f2;}.b27809bd-69e9-4410-995c-cca56c885aff{fill:#aec5f1;}.b6526dfc-cf26-4d8e-bd4a-92a0574fc209{fill:#fafcfd;}.b599e141-9aa3-4f25-ad83-fda843c5a0a6{fill:#f9b9b8;}.b55d195a-f04e-47cc-99cd-1b79197e3b66{fill:#fdfdfd;}.eb9010cc-dff6-4b31-8066-bc6db7b05244{fill:#fbfcfe;}.f63a714a-ad02-4844-96c9-bd2c4b559c87{fill:#fd9402;}.bfd13307-ca78-4eec-bf27-b2323cd31514{fill:#2c42c6;}.b7b76cec-2e21-4a7f-bfea-904379c659e0{fill:#2b41c4;}.be47375e-9cf9-459e-888b-c5887c139a7b{fill:#7ea3f7;}.f4c168c9-24d7-4b83-9821-a8cdc96678e2{fill:#fbfbfd;}.f8d8cf77-132b-4607-9bba-6b9bddfeeca9{fill:#b0c3f0;}.bf68a4c8-3637-4e68-8dca-a3acdd7be70a{fill:#fbfcfd;}.b336c2ee-69e8-4e9e-8378-e0210a1bf0c1{fill:#fe866d;}.b19752d0-dec5-4f53-a86c-e9d534f6c36f{fill:#8f7577;}.ef892b6e-e20c-4d4d-a54a-dd46572063dd{fill:#9f7f81;}.bd7f7544-c87d-4931-b982-ff9cdc1d76e3{fill:#92787b;}.a6a47d26-95b3-442a-8407-70066427b5f6{fill:#967a7d;}.fe0dd5e9-b91a-4232-89c2-fbd0994c77f2{fill:#2d43c5;}.e1bdd73a-13c2-4fcd-927c-38032f06ea77{fill:#cedbf4;}.fe5d83ce-e747-4ff1-9681-1d3303364ca0{fill:#907679;}.b30149bf-2433-4c75-bf8f-8253cb1d7f46{fill:#fdfafa;}</style></defs><title>index1</title><path class="a17c1210-a53d-48cb-a5eb-35aa422698b1" d="M959.64,34.93q454.91,0,909.8-.22c8.62,0,10.57,1.94,10.56,10.55q-.39,493.35,0,986.71c0,8.6-1.94,10.54-10.56,10.54q-909.79-.36-1819.6,0c-8.61,0-10.56-1.94-10.55-10.54q.38-493.37,0-986.71c0-8.61,1.94-10.55,10.55-10.55Q504.75,35.1,959.64,34.93Z" transform="translate(-39.29 -34.71)"/><path class="a899dc75-8bff-4ca8-a2b5-b84cd292e09e" d="M1377,635.16c9.78-34.76,11.62-70.36,11.47-106.2-.06-16.36.13-32.72.21-49.09a132.69,132.69,0,0,0-.5-25.89c-1.65-15.76,5-29.75,13.28-42.56,7.4-11.43,16.07-22,29-28,8.4-.92,16.8-1.74,25.08.77,5.13,3.46,2.79,8.23,1.83,12.46-2,8.71-2.59,17.34-.59,26.11,4,17.45,17.4,23,32.84,13.34,8.72-5.43,13.83-14.06,19.53-22.21s8.47-18.22,18.13-23.09c14.68-1.87,29.13-6.42,44.19-3.72,2.63,2.07,3.43,5.09,3.31,8.1-1.2,29.47,8.18,55.71,24.18,80,3.39,11.88-.06,23.51-1.76,35.09-8.17,55.71-29.65,107-53.19,157.57-1.3,2.8-2.94,5.38-6.28,6.18-22.51-8-45.18-15.49-68.8-19.73-5.2-.94-10.66-.91-15.49-3.55-5.73-5.13-12.48-6.64-20.07-6.77-17.54-.3-35.13,1.45-52.63-1.11C1377.71,641.18,1374.65,639.47,1377,635.16Z" transform="translate(-39.29 -34.71)"/><path class="aab675bb-76a6-42fb-b9af-a72e50329b39" d="M1654.77,991.59c-13.1,5.12-27.14,3.16-40.59,4.22-23.1,1.83-46.44,2.23-69.62,3.34-70.47,3.38-141,1.88-211.4,1.4-32.86-.22-65.81-2.43-98.7-3.89-36.83-1.64-73-8.91-109.87-9.6-1.75,0-3.47-1.21-5.2-1.85,4.17-4.61,9.8-3.32,15-3.49,10.24-.33,20.46,0,30.69-1.55,9.26-1.44,13.63-6.15,12.94-15.26-1-13.82,4.61-25,13-35.34,3.55-2.78,8.43-4,10.89-8,5.91-9.5,14.79-13.59,25.4-15,32.12-2.46,64.32-2.91,96.48-4.08a9.11,9.11,0,0,1,4.36,1.13,8.64,8.64,0,0,1,3,5.05c1.28,12.49.31,25,.61,37.55a76.72,76.72,0,0,0,.27,9.1c.37,2.58.44,5.87,3.9,6.07,4.18.23,4.69-3.45,4.89-6.38.92-12.87,2.63-25.67,3.66-38.54,1.79-4.29,1-9.6,5.12-12.95,3.88-1.92,8.13-2.11,12.28-2.15,35-.34,70.06-.94,105.08.29,11.8.42,23.56-1.21,35.37-.63,6.47.31,13,.24,18.93,3.31,5.55,9.18,5.1,19.56,5.79,29.69.62,9.23.91,18.48,4.7,27.65,5.75-3.44,4.52-8,4.61-11.88.27-11,0-22,.16-33,.07-4.16,0-8.41,2.91-11.92,3.09-2.12,6.61-1.63,10-1.44,28.06,1.58,56.31,1,84,6.76,4.06,3.24,3.36,8.37,5,12.57.94,10.5,3.12,20.89,3.43,31.46A65.2,65.2,0,0,0,1654.77,991.59Z" transform="translate(-39.29 -34.71)"/><path class="a4edf556-b4c9-4ca9-b6d4-8fda2080b745" d="M1377,635.16c-.61,2.22.64,3.74,2,5.23,5.25,12.38,3.5,17.7-8.39,25.54-15.58,2.06-31.24.85-46.85.91-31.29.12-62.58.19-93.86.49-5.68.06-11.55.56-16.49-3.29-12.23-.06-24.46-.24-36.68-.12-9.89.09-15.64-4.55-18-14.06-9.55-37.72-19.32-75.38-28.8-113.12-3.2-12.73,2.5-20.06,15.66-20.08,62.32-.13,124.64,0,187-.12,9.62,0,14.6,4.55,16.88,13.63,8.16,32.56,16.59,65.06,25,97.57C1375,630.27,1376.1,632.69,1377,635.16Z" transform="translate(-39.29 -34.71)"/><path class="a4edf556-b4c9-4ca9-b6d4-8fda2080b745" d="M602.38,502.86l161.62.46c19.83.06,24.45,6,19.5,25.38q-13.63,53.2-27.3,106.39c-1.23,4.8-2.25,9.74-7,12.61-2.31,5.1-7.08,5.63-11.64,5.64-63.05.23-126.11.76-189.17-.24a17.48,17.48,0,0,1-3.36-.64c-10.9-4.38-13.41-12.92-11.7-23.56.65-3,1.59-6,2.27-9,1.1-4,1.9-8.05,2.95-12.06,5.05-16.14,8.67-32.65,12.66-49.06,3-12.23,5.89-24.45,9.18-36.58C566.25,500.56,580.93,493.88,602.38,502.86Z" transform="translate(-39.29 -34.71)"/><path class="aab675bb-76a6-42fb-b9af-a72e50329b39" d="M820.63,921.29c6.33,5.18,14.38,4.73,21.7,6a275.09,275.09,0,0,1,48.26,13.58c5.18,1.94,10.78,3.87,10.64,11.62-.14,8-6.11,10.53-11.45,12.52-18.43,6.85-37.58,11.43-56.85,15.28-32.49,6.48-65.56,8.15-98.42,11.53-37.43,3.86-75,5.6-112.58,7.27-70.92,3.15-141.82,1.64-212.72,1.6-35.23,0-70.54-1.86-105.66-4.73-18.35-1.5-37-1.57-55.08-6.31.09-8.06,6.45-7.86,11.42-7.53,15.2,1,30.49-2.08,45.65,1.39,11.88,2.72,21.34-3.13,30.44-9.67,19.37,1.11,38.77.9,58.17.77,16.18-.12,23.86-6.92,25.37-22.94.93-9.83,2.45-19.59,3-29.48.39-6.67.61-13.82,6.26-19,1.48-.44-.47-.37,1-.48,36.42-2.82,72.84-3.35,109.25.22,4.75,3.7,2.53,8.32,1.36,12.57-1.62,5.9-3.42,11.74-4.39,17.79-2,12.33.14,14.54,12.4,16.18,27.06,3.61,54.22,1.7,81.34,2.15,11.85.2,23.71.12,35.56,0,13.86-.14,14.27-.56,16.62-14.46,3.33-4.08,8.09-3.45,12.53-3.62,6-.23,12.08-.19,18.11-.09,14.84.24,22.91-7.7,26.42-21.36,4.71-3.43,9.84-1.74,14.89-1.22,7.16,4.85,15.1,6.53,23.67,6.39,10.58-.17,21.18-.23,31.77.08C813.45,917.53,817.86,917.19,820.63,921.29Z" transform="translate(-39.29 -34.71)"/><path class="b69e8ea0-43d7-4a37-a749-60c593db49de" d="M1537.16,673.82c31.18-62.66,56.73-127,60.45-198.05,9.56-8.74,20.09-15.73,33.11-18.21q.62,6.84,1.24,13.67a5.64,5.64,0,0,1-1.4,5.25c-6.74,7.13-5,14.25-.3,21.54a24.67,24.67,0,0,1,4.07,9.25c1.68,11.89-1.54,23.38-2.67,35-6.71,8-8.27,16.73-4.11,26.41A816.58,816.58,0,0,1,1600,693.62a12.63,12.63,0,0,1-1.74,3c-3.35,3.84-8,4-12.59,4.42-4.23.42-9.05.74-9.37,6.32-.26,4.45,3.38,6.49,7.13,7.93,2.79,1.07,6.11,1.13,8,4.07-4.42,25.33-11.23,49.91-22.95,72.91a13.3,13.3,0,0,1-8.54,7c-18.73,1.38-37.47.84-56.21.77-55.12-.21-110.25-.06-165.37-.09-5.35,0-10.72.33-16-.61-13.37-8-25.32-32.22-23.27-47.2,3.36-11.67,13.24-13.81,23.19-15.5,31.62-5.35,63.25-10.7,95.11-14.5,29.93-3.57,59.8-7.64,90.09-6.88,14.09.36,15.19-1.42,20.24-15.15C1530.84,691.39,1529.35,680.89,1537.16,673.82Z" transform="translate(-39.29 -34.71)"/><path class="b7b784bf-8f5c-469c-ada5-b306b6000e40" d="M336.12,975.65c-9.33,14-23.1,13-36.89,10.34-14.94-2.87-29.89,1.82-44.8-.81-2.79-.49-4.73,2-6,4.5-19.78.18-39.33-2.58-58.84-5.15-25.12-3.3-50.14-7.47-74.27-15.64-2.88-1-6.68-.92-8.58-2.81-4.54-4.53-14.31-5.84-12.89-13.9,1.32-7.48,9.31-10.58,16.06-13,32.05-11.62,65.58-16.37,99.16-20.74,14.48-1.88,16.31-4,13-18.2-.81-3.52,0-6.87-.38-10.08-.58-4.29,1.29-10.06-3.18-12.74-8.65-5.17-8.44-13-9.51-21.61-1.46-11.7-.07-15.8,16.94-17.74,7.46-.85,15.23,2,22.45-1.83,14.09.67,19.58-7,19.37-20.06,5.12-4,6.53.83,8.36,3.79,1.95,3.16,2.39,7.11,4.51,10.54,3.5-3.47.32-10.11,6.62-11.27,3.17,2.23,2.83,5.8,3.23,9,.6,4.73,3.72,5.91,7.77,6.09,6.31.92,12.64.58,19,.65,4.25,0,8.46-.5,12.69-.78,8.92.68,18.87,1.44,21.46,11.54,2.81,10.95,4.13,22.81-6.69,31.43-7.13,5.68-6,13.47-5.09,21,.58,4.94,4.74,5.27,8.67,5.47,8.36.41,16.72-.39,25.09-.12a4.2,4.2,0,0,1,2.9,2.06c2.6,5.64.18,11.24-.18,16.86a91.5,91.5,0,0,0,.1,17.12c.41,3.35.7,7.84,4.89,8,4.84.18,3.87-4.7,4.45-7.81,2.16-11.67,2.43-23.47,2.3-35.3.33-3.69.27-7.57,4.41-9.47,4.07,4.79,8.24,8.85,15.59,7.06a8.35,8.35,0,0,1,8.87,3.27c1.93,16.91-1.42,33.47-3.73,50-1.35,9.69-7.83,14.35-17.68,14.45-12.24.14-24.48.2-36.72.05-18.27-.23-22.68-4.87-22.74-23.42,0-1.53,0-3.06,0-3.35C335.94,953.09,335.33,964.37,336.12,975.65Z" transform="translate(-39.29 -34.71)"/><path class="ad3736bb-c587-4777-a078-70ab82bcd36e" d="M820.63,921.29c-16.6-.27-33.21-.29-49.81-.9-7.28-.27-15.31-.08-18.93-8.76-4.46-4.23-3.1-9.8-3.22-14.91-.15-6.18-1.1-12-4.93-17-3.33-5.24-6-10.88-9.78-15.85-21.55-35.23-44.43-69.64-64.58-105.72-1.85-3.31-4.27-6.39-4.62-10.4,2-11.85,8.86-21.81,12.82-32.92,3.59-10.06,7.33-20.07,10.79-30.18,1.47-4.29,2.65-8.87,7.16-11.31a52.7,52.7,0,0,1,25.09,0c4.47,2.41,5.76,6.94,7.16,11.25,7,21.74,15,43.17,21.82,65a126.08,126.08,0,0,1,6.6,28.55c8.73,29.46,17.39,58.95,26.26,88.37,1.39,4.6,5.55,5.43,10,6.11,24.83,3.75,49.35,8.9,72.86,18,6.21,2.4,11.62,5.73,15,11.73,6.57,11.81,2.77,18.54-10.46,18.61Q845.24,921.09,820.63,921.29Z" transform="translate(-39.29 -34.71)"/><path class="b02e925d-6b01-462c-a951-3b03d6c42656" d="M344.8,390.14c-.48-26.73-.79-53.45,7.37-79.39a136.07,136.07,0,0,1,11.64-27.27c3-5.15,6.75-10.07,12.44-11.21,14.13-2.85,25.76-11.22,38.87-16.21,13.63-5.17,27.39-6.81,41.32-1.1,19.8,8.12,33.38,33.41,22.63,50.77-11.78,19-.38,32.36,5,47.1s17,26.11,25.89,38.95c6.3,9.09,12.4,18.3,14.95,29.35,2.09,9,1.34,17.35-5.17,24.52-6,.29-6.65-5.32-9.13-8.66C500,422.66,490.44,407.2,471.83,401.6c-6.88-1.82-14.07-.31-21-1.93-5.87-1.47-12.18-1.84-16.42-7.13-5.53-6.89-3.89-12,4.55-13.91,22.14-5,26.92-10.9,27-33.52,0-1.52.11-3.06,0-4.57-3.5-35.37-4.68-33.65-36.73-39.49-13.7-2.5-21.11,5.32-19.85,19.06,1,10.66,2,21.29-1.81,31.68-1.56,2.92-2.76,7.58-6.75,6.26s-2.16-5.81-1.8-9.11a55.71,55.71,0,0,0-.06-14.82c-.46-1-.86-2-1.26-3-2.8-5.22-7-11.57-12.77-7.77s-1.24,10.77,1.91,15.17c6.19,8.64,12.36,17.19,16.13,27.25-.18,11.33,2.74,23.46-8.23,32-13.63,3.72-27.57,5.67-41.58,7.31a14.7,14.7,0,0,1-7.24-1.65C342.3,399.26,342.22,394.81,344.8,390.14Z" transform="translate(-39.29 -34.71)"/><path class="b332bda6-9b8e-407e-96ec-f8fbc3199ae0" d="M287.33,820.15c-2.66,1.71-2.11,4.57-2.59,7.09-.68,3.49,1.31,9.38-3,9.8-5.2.51-3.58-6.21-5.54-9.44-2.43-4-1.18-10-6.79-12.28-13.08-24.32-26.5-48.41-42-71.32-4.62-6.83-11-12.61-13.49-20.85,1.35-4.53-2.39-6.95-4.37-9.94-9.87-14.94-20.38-29.5-28-45.81-5.48-11.8-12.26-24.5-2.68-36.52s24.57-12.92,38.85-11.81c21.81,1.7,34.42,16.16,44.4,33.78,1.79,3.16,1.93,7.56,6.29,8.95,4.23,1.73,4.19,5.81,5.19,9.34,9.89,31.49,13.9,63.88,14.9,96.73.11,3.49,1.24,6.72,1.87,10.09,1.45,10.59.87,21.23.68,31.85C291,813.58,290.7,817.47,287.33,820.15Z" transform="translate(-39.29 -34.71)"/><path class="aab675bb-76a6-42fb-b9af-a72e50329b39" d="M1708.36,271.29c-33.07-.33-60.88-24.44-60.28-59.27.61-35.73,25.85-59.38,59.53-59.29,34.63.09,58.43,22.9,59.44,61C1767.85,244.32,1739.65,271.28,1708.36,271.29Z" transform="translate(-39.29 -34.71)"/><path class="f4f87e44-41c1-4219-97b4-207096487e82" d="M1547,254.88c12.92,10.89,29.47,8.38,44.37,11.51,34,7.15,67.3,15.64,97.47,33.57a53.69,53.69,0,0,1,7.55,5.05c30.62,26.08,28.39,17.78,10,54.87-7.91,16-21.42,28.43-29.5,44.4-1.18.06-2.52-.13-3.06-1.07-10.5-18.76-23.17-36.19-33.62-55a5.7,5.7,0,0,1-.23-3.34c2.46-5.36-1.8-6.64-5.2-8.1-28.31-12.17-55-27.63-82.81-40.81-4.07-1.92-8.43-3.9-9.38-9.2C1544.56,276.21,1540.21,264.77,1547,254.88Z" transform="translate(-39.29 -34.71)"/><path class="b7e216e6-324d-40d5-adc9-686d6890d158" d="M1213.38,664l158.72-.69a29.15,29.15,0,0,1,15.49-3.29c18.64.8,37.38-1.88,55.92,1.68,4.44,3.12,1.81,4.92-1.39,6.17-4.38,1.71-9.06,1.26-13.63,1.27-50.88,0-101.76.38-152.64-.19-17.34-.19-27.79,6.9-34.35,22.65-28.65,68.79-55.56,138.28-84.2,207.07-2,4.9-3.47,10.23-8.42,13.3-11.54.15-22.12-2.1-29.61-12-4.17-9.55,3.45-16.69,6.07-24.35,10-29.27,21.78-58,33-86.82,13.76-35.34,27.76-70.58,41.37-106C1202.67,675.27,1209.61,670.88,1213.38,664Z" transform="translate(-39.29 -34.71)"/><path class="f4f87e44-41c1-4219-97b4-207096487e82" d="M540.35,609c.77,3.91-.34,7.42-2.27,10.77-3.34,3.18-7.18,1.72-10.78.9-17.1-3.93-34.35-6.28-51.94-5.9-11.29-4.06-23.05-5-34.9-5-21.76-.12-43.37-2.18-64.94-4.73a406.44,406.44,0,0,1-70.29-12.13A34.44,34.44,0,0,1,295.05,588c-4-3.92-5.52-8.6-5.23-14.28.42-8.25.39-16.55-1.65-24.68,2.18-17.64,2.6-35.61,9.8-52.32,2.36-2.37,5.11-1.55,7.32-.21,12.18,7.4,25.92,10.54,39.32,14.61a4.63,4.63,0,0,1,1.64,3c-.65,9.93-4.38,19-8.24,28-3.34,7.74-.93,11.25,7,12.22a197.7,197.7,0,0,1,20,3.69c28.65,6.24,57,13.64,85.07,22,10.38,3.07,20.33.92,30.51.26a124.83,124.83,0,0,1,15.95.1c6.36.29,12.29,4.24,18.94,2.23C523.6,591.56,535.24,597.22,540.35,609Z" transform="translate(-39.29 -34.71)"/><path class="ad3736bb-c587-4777-a078-70ab82bcd36e" d="M1338.18,388.1c-4-13.61-12.73-24.89-18.71-37.55-7.19-15.24-12.37-31.12-17.41-47.11-3-9.45-1.46-16.24,7.78-22.18,23.71-15.26,50.05-21.62,77.31-26.34,13.22-2.3,26.73-.17,39.68-4,2.23,1.06,3.31,3.13,4.34,5.16,4.44,8.77,11.38,12.95,21.36,12.27,3.76-.26,7.69-.29,11,2.09.93,6.6-4.43,5.1-7.82,5.91-3.68.89-8.61-1-9.85,4.8-.32,1.05-.7,2.08-1.07,3.11-1.38,7.22-5.33,12.18-12.56,14.24-15.44,6.24-31.51,10.54-47.68,14.35-7.92,1.87-10.78,4.57-5,11.85,2.31,2.91,4.57,6.07,4.82,10.07-.5,2.85-2.45,4.69-4.58,6.31-14.77,11.26-26,25.45-35.28,41.43C1343.11,385,1342.1,388.29,1338.18,388.1Z" transform="translate(-39.29 -34.71)"/><path class="ee7089f3-e77f-45db-a79f-1533a60948a0" d="M1640.56,345.14c13,19.21,25.85,38.45,36.37,59.15,6.23,9,4.57,15.5-4.75,21.88-14.29,9.78-27.69,20.86-41.46,31.4l-33.11,18.2c-21.87-25.23-27-55.37-25.75-87.4-.93-4.37,2.8-6,5.17-8.09,15.46-13.8,32.93-24.7,51.08-34.51C1631.87,343.73,1636.19,340.6,1640.56,345.14Z" transform="translate(-39.29 -34.71)"/><path class="a229e0a2-f77e-43a6-a0c7-dc7dfaf8d8c8" d="M542.64,649.87q97.8.12,195.62.32a25.53,25.53,0,0,0,11-2.49c5.82,5.57,12.92,1.89,19.38,2.49,7.15.66,14.41.26,21.62.11,6.17-.13,11.56,1.35,13.88,7.6,2.49,6.7,0,11.8-6.38,15-25.77.72-51.36,5.88-77.38,1.39-13.12-2.26-26.58.87-39.9,1.6-19.09,1-38.27-.51-57.38.79a18.32,18.32,0,0,1-4.43.39c-51.15-1.27-102.33-1.36-153.44,0-21.71.58-43.45,1.45-65.18,1.66-4.94,0-10,.32-14.59-2a3.31,3.31,0,0,1-1.8-3.55c2.36-3,5.82-3.48,9.21-3.49,18.89-.1,37.81-1.12,56.43.82-8.34-6.64-7.94-11.34,2.07-21.28,5.75-3.32,12.23-.54,18.2-2.21,20-1.38,40.1-.45,60.16-.64A23.69,23.69,0,0,1,542.64,649.87Z" transform="translate(-39.29 -34.71)"/><path class="ad3736bb-c587-4777-a078-70ab82bcd36e" d="M602.38,502.86a13.53,13.53,0,0,1-2.25.37c-34.22-.44-31.17-1.42-39.49,31.42-2.14,8.46-4.55,16.85-6.83,25.27-7.77,8.06-11.62,8.57-21.27,1.35-9.45-7.06-16.92-16.31-25.48-24.37-5.12-5.66-10.45-11.18-13.52-18.36,4.06-10.48,12-19.34,13-31.1,4.11-5.67,7.89-11.7,14.92-14.35,6.12,9.63,12.51,19.1,18.25,29,2.81,4.82,5,4.71,8.44,1,19-20.48,41.72-36.75,63.35-54.23,11.39-9.21,18.35-23.42,33.78-28.24,9.09-2.84,17.91-6.75,27.41-7.67,3.37-.33,12.73-8.49,9.57,5.29-.78,3.42,4.1,2.29,6.38,2.28,10.29,0,20.64.72,30.83-1.68,3.07-.72,7-.67,8,2.58,1.3,3.93-3.09,4.76-5.58,5.81-25.39,10.77-51.65,18.35-79.21,20.92-3.8.36-7.61-.16-10,3.92C622.68,469,612.51,485.92,602.38,502.86Z" transform="translate(-39.29 -34.71)"/><path class="f4f87e44-41c1-4219-97b4-207096487e82" d="M1192.9,929.83c-6.86,12.67-13.67,25.07-11.91,40.6.85,7.49-3.9,11.42-12.58,12.75-16.37,2.52-32.72.89-49,2-24.7,0-49.39-.16-74.08,0-6.86.06-12.35-.36-11.26-9.41.68-5.61-2.47-6.78-7.52-7.12-7.32-.5-15,2.57-21.93-2.2,1.33-1.49,3.13-2.7,5-2.49,15.58,1.79,27-6.31,39.59-14,18.07-11.06,39.93-12.25,60.1-17.88a64.93,64.93,0,0,1,13.49-2.58,37.68,37.68,0,0,0,26.18-12.25C1164.15,919.51,1179.23,922.21,1192.9,929.83Z" transform="translate(-39.29 -34.71)"/><path class="b02e925d-6b01-462c-a951-3b03d6c42656" d="M1463.86,271.68c-5.29.14-10.61.76-15.86.34-12.46-1-18.07-6.84-21.17-21.1,2.56-23.92,18.38-38.55,42.47-39a71.29,71.29,0,0,1,36.12,9.23c11.94,6.58,20.72,17.76,33.87,22.72,4.4,1.67,5.33,7.16,7.73,11,1.08,11.75-.34,23.33-2.24,34.89a2.78,2.78,0,0,1-.94,3.21c-11.22,3.2-22.18,6.61-25.26,20.16a5.13,5.13,0,0,1-6,4.18c-2.88-.57-4.27-3-4.9-5.8-1.21-5.31-.63-10.63-.06-16,2-18.78-6.83-27-25.8-24.53C1475.88,271.79,1469.94,274.6,1463.86,271.68Z" transform="translate(-39.29 -34.71)"/><path class="b6fe4974-abe3-4ae7-b256-e31ec73a7c50" d="M1709.4,626.87c8.79,0,17.57-.11,26.35.09,4.37.1,10.37-1.77,12,3.81,1.91,6.39,4,15-1.46,19.43-8.54,6.87-8.32,15.45-9,24.39-.11,1.52,0,3.06-.09,4.57-.42,5.25-5.24,11.89-2,15.1,4,4,11.64.85,17.66,1.49,6.33.67,13-1.86,19,1.8-3.93,4.84-9.56,4.18-14.77,4.2q-72.51.24-145,0c-5.64,0-12.55,1.61-15.47-6.06l.75.21c4-3.85,9.17-3.17,14-3.22,12.55-.12,25.11-.2,37.66,0,6.74.12,10.38-2.16,8.81-9.34-2.47-11.29-1.91-23.27-11-32.81-5.88-6.17-6.25-14.47-.86-22.06,4.75-4.89,11-4.2,17-4.6,4.77-.32,9.88,1.52,14.17-2,.89-3.15.2-6.45,1-9.59,1.7-3.87,0-9.65,6.2-11,3.77,3.45,2.73,8.2,3.29,12.49.68,5.14,2.34,9.36,8.14,10.46a10.75,10.75,0,0,1,4.3,2.63l7.65,0Z" transform="translate(-39.29 -34.71)"/><path class="aab675bb-76a6-42fb-b9af-a72e50329b39" d="M530,295.55c-4-2.75-6.22.59-8.68,2.76-2.11,1.87-4.34,3.43-7.18,2.09-3.23-1.53-3.5-4.63-3.63-7.81C510,280.82,522,268.19,534,270c6.72,1,9.53-2.14,11.87-6.13,2.64-4.5-3.26-6-4.83-9.14-5.16-10.28-20.24-8.17-24.37-19.79-1.26-3.55-4.22-6.6-5.06-10.19-1.61-6.9.86-12,8.62-13.07,9.39-1.25,20.48,7.72,23.86,16.68,3,7.89,10,14.15,17,17.77,4,2,9.52-3.81,9.68-10.53.41-17.76,8.8-25.58,25.44-24,2.68.26,5.87,0,6.78,3,.73,2.43-2,3.81-3.39,5.58-2,2.56-5.79,4-5.47,8.17,3.38,2.24,4.72-1,6.62-2.43,2.62-2,4.64-6.17,8.55-4.28,4.26,2.07,4.52,6.69,4.44,11-.19,9.78-8.76,18.52-19.82,20.22-3.34.52-7-.71-10,1.64-4.42,3.52-8.69,6-.5,11.37,10.06,6.55,20.48,13.07,27.35,23.75,4.87,7.56,3.87,14.33-2.27,19.36s-14,6.2-20.68-.48c-7.28-7.26-14.76-14.3-20.83-22.75-1.87-2.61-4-7.72-8.66-5.53-3.79,1.77-5,5.13-4.75,10.28.75,13-8.5,22-20.86,22.1-3.36,0-7.31.89-9.38-2.69-2.45-4.23,2-5.88,3.9-8.41C528.62,299.67,530.91,298.43,530,295.55Z" transform="translate(-39.29 -34.71)"/><path class="b30c5d1f-9b97-4128-9c80-d24912837547" d="M200.54,305.69c-14.52,0-29-.21-43.56.11-6.52.14-9.86-1.38-9.62-8.82.45-14.11.35-28.24,0-42.35-.15-6.43,2.17-8.7,8.62-8.65,29.42.22,58.84.27,88.26,0,7.18-.08,9.26,2.65,9.08,9.42-.38,13.73-.42,27.48,0,41.21.2,7-2.21,9.43-9.23,9.24C229.58,305.4,215.06,305.69,200.54,305.69Z" transform="translate(-39.29 -34.71)"/><path class="ee7089f3-e77f-45db-a79f-1533a60948a0" d="M1338.18,388.1c11.81-20.56,24.53-40.35,45.66-52.89,3.9-6.13,9.09-4.56,12.27-.38,11.55,15.19,24,29.8,33.59,46.37a6.25,6.25,0,0,1,.44,4.47c-25.62,19.52-41.2,44.08-39.83,77.54.22,5.49,1.73,11.4-1.63,16.66,2.94-15.81-4.69-26.73-15.4-37.4-12.89-12.82-23.4-27.81-33.35-43.1C1337.61,395.8,1335.06,392.44,1338.18,388.1Z" transform="translate(-39.29 -34.71)"/><path class="f358516a-4ecd-4ac8-a0ff-abd931d8edfb" d="M213.87,723.15c15.46,14.13,24.14,33.09,35.32,50.2,8.48,13,17,26.27,20.19,42,0,1.53,0,3,0,4.58.83,20-.49,21.06-20.93,16.31-19.39-19.37-39.62-38-55.47-60.62a100.69,100.69,0,0,1-11.69-20.84c-6.77-17.26-.51-28.44,17.74-31.22C203.89,722.79,208.92,723.24,213.87,723.15Z" transform="translate(-39.29 -34.71)"/><path class="b5fd1a8e-48c0-45bf-9954-506e201b7b4d" d="M1257.21,397.53c0,12.59-.21,25.17,0,37.75.1,5.77-1.86,8.2-7.91,8.17q-55.56-.26-111.11,0c-7.66,0-9.89-3.54-9.78-10.56.26-17.16.11-34.32.13-51.48,5.31-1.41,8.51,2.5,12,5.08,14.42,10.6,29,21,42.86,32.29,7.42,6.05,12.89,5.53,19.9-.3,9.93-8.27,20.44-15.88,31-23.32C1243.44,388.77,1248.81,389.55,1257.21,397.53Z" transform="translate(-39.29 -34.71)"/><path class="bf0a63d2-c943-4666-8459-a4ab33a268d7" d="M720.7,275.86c9.17,0,18.35.4,27.48-.13,7.8-.46,10.87,1.95,10.6,10.2-.56,17.14-.1,34.32-.2,51.48-.07,12.19-4.12,16.13-16.48,16.49-11.61.34-13.05,2.34-9.88,13.78,1.11,4,2.51,8,3.29,12.05,1.27,6.53-2,11.54-7.41,14.13-5.15,2.48-11.39,3-16.23-1-4.55-3.78-7.25-8.85-5.22-15.21.69-2.17,1.45-4.33,2.1-6.52,4.27-14.29,2.84-16.52-11.61-17.18-9.19-.43-14.17-5-14.24-14.16-.15-18.68.11-37.37-.12-56-.08-6,2.34-8.09,8.14-7.93C700.84,276.06,710.78,275.86,720.7,275.86Z" transform="translate(-39.29 -34.71)"/><path class="b5fd1a8e-48c0-45bf-9954-506e201b7b4d" d="M1128.56,372.28c-2-10.77,2-14.35,13.34-14.08,31.5.77,63,.23,94.55.21,2.06,7.83,0,15.88,1.43,23.81.89,5-2.93,8.54-6.48,11.46-9.73,8-20,15.35-30.17,22.79-4.28,3.14-9.12,4.65-13.81,1.19C1167.47,403,1146.49,389.59,1128.56,372.28Z" transform="translate(-39.29 -34.71)"/><path class="ba94bbea-69f4-4048-9cff-c6697c16f6b0" d="M1596.66,695.64c1.89,2.5,4.64,2.27,7.29,2.26l168-.35c5.4,2.46,8.54,6.42,6.91,12.49-1.74,6.49-6.89,8.24-13.06,8.29-6.37,0-12.74.36-19.11.56-3.67,3.14-8.12,3.17-12.59,3.16q-52.87.84-105.76,0c-4.33.12-8.65.28-13,0-8.47-.37-17.34,2.25-25.12-3.33-2.64-.11-5.39.23-7.88-.42-5.94-1.57-10.49-5.22-9.95-11.79.51-6.2,5.08-8.71,11.18-8.69C1588,697.86,1592.68,698.62,1596.66,695.64Z" transform="translate(-39.29 -34.71)"/><path class="aab675bb-76a6-42fb-b9af-a72e50329b39" d="M1732.58,911.45c-.91,7.59,1.35,11.24,10.06,12.37a312.13,312.13,0,0,1,61,13.79c8.54,2.93,18.78,6.24,19.69,15.13,1,9.84-10.86,12.41-18,14.72-26.62,8.59-53.9,14.93-81.94,17.25-1.65-10.65,1.61-21,2.15-31.55s1.45-21.29,1.76-32C1728,917.36,1726.76,912.49,1732.58,911.45Z" transform="translate(-39.29 -34.71)"/><path class="b69e8ea0-43d7-4a37-a749-60c593db49de" d="M295.05,588c16.7,3.27,33.37,6.72,50.12,9.76,10.09,1.83,20.29,3,30.44,4.5,9,10.71,3.42,22.55,2.68,34-.38,5.18,3,11-2.53,15.32a19.34,19.34,0,0,1-8.9,1.75c-25.13-.35-50.21.72-75.29,2.31-5.51.35-11.58,1.06-16-3.92,8.84-3.44,18-1,27-1.41,5.34-.23,6.49-1.93,5.3-6.88C303.46,625.05,299.3,606.53,295.05,588Z" transform="translate(-39.29 -34.71)"/><path class="a4edf556-b4c9-4ca9-b6d4-8fda2080b745" d="M275.56,651.79c33.83.89,67.56-3.78,101.4-1.8.94-.65,1.78-1.68,2.87-1.82a258.85,258.85,0,0,1,70.06,0c1.19.16,1.74,1.39,2.53,2.19-5.93,6.32-9.58,13-1.57,22.71H384.48c-2,2.77-4.78,3.42-8,3.35-20.76-.53-41.54.09-62.31,0-12.33-.66-24.7.32-37-1a9.94,9.94,0,0,1-6.19-5.29c-.87-2.76-1.73-5.53-2.6-8.28C268.71,657,270.14,653,275.56,651.79Z" transform="translate(-39.29 -34.71)"/><path class="aa9537b1-dc32-40e9-8679-7421cef93e1a" d="M1632,505.3c-1.52-2.1-3.12-4.15-4.54-6.32-7.57-11.63-6.94-15.42,4.5-27.75,2.13-.73,4.3-1.34,6.37-2.21,26.18-11,43-2.85,51,24.73,6.56,22.66,5.27,45.81,4.37,69a2.74,2.74,0,0,1-3,.51c-14.09-20.26-34-34.4-52.75-49.72A22,22,0,0,1,1632,505.3Z" transform="translate(-39.29 -34.71)"/><path class="b9f78b3e-ec30-4250-b124-addc5010c58c" d="M1149.46,917.89c-3.3,11.24-12.72,12.66-22.34,14.31-24.36,4.17-48.48,9.41-71.75,17.95-2.81,1-6.19,2.05-7.93,4.19-11.53,14.15-27.2,13-42.84,12.19-5.5-11.37-.89-19.84,8-26.89,12.38-9.87,27.74-12.49,42.44-16,16.58-4,33.08-8.72,50.24-10.07,8.27-.64,10.75-7.56,14-13.53l28.09,11.37C1149.36,913.15,1150.26,915.25,1149.46,917.89Z" transform="translate(-39.29 -34.71)"/><path class="b69e8ea0-43d7-4a37-a749-60c593db49de" d="M300.16,496.64c-5.44,17.15-5.73,35.47-12,52.44-3.83-30.65-7.29-61.33-5.46-92.33.85-14.53,2.91-28.78,8.77-42.3s14-23.38,30.49-22.91c7.59.21,15.22-.89,22.83-1.4q.6,5.61,1.18,11.21c-24.22,22.24-32,52.71-41.54,82.37C303.06,488,302.89,492.77,300.16,496.64Z" transform="translate(-39.29 -34.71)"/><path class="aa9537b1-dc32-40e9-8679-7421cef93e1a" d="M1709.69,604c-2.64-18.21-3.63-36.37,2.16-54.23,7.09-21.88,26.3-33.6,48.88-29.92,12.62,2.05,16.41,8.65,10.91,20.17-6.16,12.89-15.9,23.2-26,33-10.91,10.59-22.3,20.69-33.49,31C1711.31,605.1,1710.49,605.09,1709.69,604Z" transform="translate(-39.29 -34.71)"/><path class="ef47096a-ce2c-4e6e-a488-44cbb1de7c85" d="M1128.56,372.28c19.08,10.26,35,24.9,52.27,37.72,8.76,6.52,15.68,9.93,24,.17,2.39-2.81,5.77-5,9-6.84,14-8.09,25.65-17.21,20.57-36.25-.67-2.52,1.31-5.76,2.06-8.67,5.79-3.37,8.94-10.4,16.47-11.42,16.54-2.23,28.26,6.1,31.32,22.5,2.1,11.32-7,22.13-21.77,25.91a41.66,41.66,0,0,0-5.26,2.13c-9.3-5.41-17.11-4.73-25.64,3-9.8,8.88-21.68,15.42-31.83,23.94-5.45,4.57-8.63,3.59-13.6-.21-19-14.52-38.36-28.6-57.58-42.85Z" transform="translate(-39.29 -34.71)"/><path class="a3f441c8-134f-466e-b2e0-e5d191cc2f8e" d="M1732.58,911.45c-3,2.55-1.85,6.11-2.25,9.3-3.92,2.73-7.89,5-12.55,1.44a10.82,10.82,0,0,1-1.44-3.85c3.13-49.05,7.65-98,12.08-146.93,1.23-13.66.49-27.45,3-41,.75-4.12.68-8.4,3.77-11.72l11.52.24c-1.17,39.62-5.19,79-8.91,118.44C1735.44,862,1734.27,886.74,1732.58,911.45Z" transform="translate(-39.29 -34.71)"/><path class="a47e5376-f0a3-4300-afc1-94b39d94b1b6" d="M1719.05,923c3.45-2.3,7.3-2.63,11.28-2.28-.64,21.5.43,43.19-7,64-9.27,6.58-19.81,7.23-30.7,7-12.63-.29-25.26-.09-37.9-.1-14.43-7-14.15-21.06-15.9-33.78-1.59-11.5-1.85-23.18-2.7-34.79-2.06-8-2.58-15,9-14.68a9,9,0,0,1,5,6c2.31,16.23,3.43,32.61,5.42,48.9,1.12,9.25,5.72,13.66,15,13.7,8.41,0,16.82.16,25.23,0,12.74-.24,16.47-3.48,17.27-16.09.62-9.9.66-19.84,2.62-29.62C1716.23,928.27,1716.42,925.16,1719.05,923Z" transform="translate(-39.29 -34.71)"/><path class="bf0a63d2-c943-4666-8459-a4ab33a268d7" d="M290.32,318.11c1.73,6.44,3.46,11.79-2.23,15.48A13,13,0,0,1,274,334c-6.15-3.44-5.3-9.19-2.67-15.32-12.43,4.79-13.53,4.14-13.6-7.45-.09-12.19.07-24.38-.06-36.56-.05-4.85,1.05-7.49,6.82-8.09,28.07-2.88,49.79,21.2,43.66,48.87C306.61,322.51,302.09,323.44,290.32,318.11Z" transform="translate(-39.29 -34.71)"/><path class="aab675bb-76a6-42fb-b9af-a72e50329b39" d="M190,482.31c-8.76,0-17.58-.57-26.29.15-10.56.87-9.51-5.92-9.31-12.45.19-6.09-2.23-13.35,8.76-13,18.67.57,37.37.53,56,0,12.13-.34,8,8.15,8.72,14.15.76,6.84-.17,11.92-9.33,11.28C209.09,481.8,199.53,482.31,190,482.31Z" transform="translate(-39.29 -34.71)"/><path class="ef47096a-ce2c-4e6e-a488-44cbb1de7c85" d="M190.52,443.37H168.76c-12.94,0-19.44-10.42-14-22.1,1.76-3.75,4.92-3.06,7.8-3.07,19.08-.09,38.17.21,57.25-.14,11.49-.22,7.51,8,8,13.62.55,6.19,1.13,12.47-8.71,11.83C209.64,442.88,200.06,443.37,190.52,443.37Z" transform="translate(-39.29 -34.71)"/><path class="ff37db9c-46a5-42a4-aa3f-c980a1794aaf" d="M191.05,519.14c-9.55,0-19.12-.38-28.65.1s-8.13-5.79-8-11.41c.14-5.35-2-11.94,7.61-11.77,19.48.34,39,.22,58.45.05,10.7-.09,6.75,7.81,7.39,13.07.73,5.95-.18,10.49-8.18,10.07C210.17,518.76,200.6,519.14,191.05,519.14Z" transform="translate(-39.29 -34.71)"/><path class="b7f60bba-97c9-43de-ac56-cbd1293b94a8" d="M205.45,308c13.35,0,26.69.11,40-.05,5.06-.06,7.79,1.37,7.78,7.05,0,5.86-3.1,6.88-8,6.84-19.06-.14-38.13.12-57.18-.32-4.16-.09-6.21-.26-6.31,4.7-.12,5.79-3.78,8.69-9.54,9.32-6.18.67-10.28-1.59-12.37-7.53a40,40,0,0,0-2.93-6.08c-5-8.93-2.7-13.66,7.34-13.86C178,307.8,191.73,308,205.45,308Z" transform="translate(-39.29 -34.71)"/><path class="a65bc54c-740c-4028-8a95-757b4068019f" d="M521.51,473.09c-4.14,4.94-7.49,10.63-13.2,14.11-6.75-9.54-7.18-21.41-11.87-31.86-7-15.68-16.44-30.12-22.91-46-1.18-2.89-6.07-6.82.3-9.83,15,3.79,24.05,14.82,32.4,26.66,4.56,6.46,9,13,13.51,19.47C526.23,454.42,526.6,463.58,521.51,473.09Z" transform="translate(-39.29 -34.71)"/><path class="b248e3fb-6da5-4187-be1c-b66525948d42" d="M620.93,675.14c2.22-3,5.48-2.17,8.43-2.17q84.18-.08,168.35-.06c-6.67,4.28-14.07,1.79-21.09,1.94-6.35.13-8.4,2.28-8.87,8.6-2.38,31.71-7,63.18-11.54,94.64-4.87-8.49-6.3-18.09-8.92-27.31-1.9-19.62,2.51-38.74,4.6-58,1.38-12.73.52-13.85-12.23-14.29-6-.2-12.37,1.2-17.61-3.26l-27.94-.13c-1.14,1-2.36,2.26-3.8,2.39-22.23,2-44.46,2.61-66.67-.33C622.47,677,621.79,675.87,620.93,675.14Z" transform="translate(-39.29 -34.71)"/><path class="bf0a63d2-c943-4666-8459-a4ab33a268d7" d="M140.28,431.42c2.78,11.22-3.66,11.64-12.61,12.31-11.92.89-12.13-4.94-12.69-14.08-.71-11.63,5.42-11.23,13.81-11.78C139.79,417.15,142.05,422.13,140.28,431.42Z" transform="translate(-39.29 -34.71)"/><path class="ef47096a-ce2c-4e6e-a488-44cbb1de7c85" d="M127.07,482.06c-11.6,2.84-11.71-4.17-12-12.89-.33-9.37,2.46-12.32,12.09-12.37,10.65-.05,13.55,3.52,13.78,13.9C141.17,481.91,136.16,483.66,127.07,482.06Z" transform="translate(-39.29 -34.71)"/><path class="aab675bb-76a6-42fb-b9af-a72e50329b39" d="M127.42,518.93c-9.31,2.1-12.29-1.6-12.45-11.32-.16-10.14,3.84-11.67,12.7-11.76,9.44-.11,13.33,1.72,13.29,12.39C140.92,519.14,135.86,520.17,127.42,518.93Z" transform="translate(-39.29 -34.71)"/><path class="f7ddc2b8-f8b2-4b87-86fd-fde80ffc251f" d="M1691.29,562.8l2.37-.1a273.53,273.53,0,0,1,6.49,64.16h-3.56a9.57,9.57,0,0,1-3.74-8c.08-16-2.36-31.78-4.07-47.63C1688.45,568.17,1688.89,565.15,1691.29,562.8Z" transform="translate(-39.29 -34.71)"/><path class="a1f79a24-043e-47d8-b047-f14dc0001bec" d="M1709.69,604l2.45,0-2.73,22.79-.81-.06-.8.07C1707.38,619.18,1706,611.4,1709.69,604Z" transform="translate(-39.29 -34.71)"/><path class="b5fd1a8e-48c0-45bf-9954-506e201b7b4d" d="M1149.46,917.89c-1.22-2-2.61-3.93-2.1-6.48,14.51-26.88,23.87-55.94,35.57-84,19.47-46.73,38-93.84,57.09-140.74,6-14.66,15.58-20.78,31.76-20.78q80.31,0,160.63-.08c4.4,0,9.24,1.63,13.16-2,1.9-5.69,5.72-10.2,9.16-14.95,24.7,3.39,48.81,9.07,72,18.46,3.85,1.56,8.09,2.57,10.46,6.52-2.85,12.62-4.71,25.48-9.92,37.52-2.06,4.76-4.51,6.74-10.19,6.76-67.53.27-133.78,11.92-200.14,22.7-8.08,1.32-13.25,5.22-15.83,12.82-.37.07-1.08.19-1.08.21,4.26,27-10.86,48-22.36,69.91-15.47,29.41-35.68,55.76-55.84,82.08-2.12,2.77,3.28,1.22,3.26,3.49-9.36,2.14-16.89,6.56-21.63,15.44a9.92,9.92,0,0,1-10.53,5.08C1178,927.53,1163.33,924.11,1149.46,917.89Z" transform="translate(-39.29 -34.71)"/><path class="f4f87e44-41c1-4219-97b4-207096487e82" d="M1463.86,271.68c7.09-1.38,14.13-3.43,21.29-4,19.21-1.58,27.58,7.35,25.72,26.63-1.57,16.34-1.57,16.34,4.13,23,2.2-17.88,11.69-26.61,29.12-25.23,5.49,8.9,2.24,18.13-3,24.34-19.6,23.18-17.77,49.81-15,76.94-6.85,10.42-13.46,21-20.61,31.2-6.21,8.85-13.83,16.34-25,18.64-14.46,3-22-2-26-16.61-3.8-13.72-1.75-27.05,2.41-40.27-1.6-4.48-.67-8,3.91-10.08,11.07,6.73,18.92-.18,27.87-6.24-10.18-.16-19.3,1.42-28.5,2.16-6.47-5.71-15.82-7.55-20.35-16a53.46,53.46,0,0,1-6.78-24.93c-.22-11.69,2-23.53-1.41-35.09,7.2-1.61,9-7.86,11.56-13.45,2.82,1.62,4.68-1.19,7.07-1.52-2.44.12-4.33,2.81-7.08,1.54-.84-6.63,1.57-9.77,8.75-9.22C1455.94,273.85,1460.35,274.94,1463.86,271.68Z" transform="translate(-39.29 -34.71)"/><path class="a17c1210-a53d-48cb-a5eb-35aa422698b1" d="M1526.15,393.39c-4.29-1-4.71-4.12-4.81-7.83-.46-15.6-.06-31.14,2.55-46.58,1-5.93,4.53-10.72,8.3-14.67,8.78-9.2,11.49-20.17,11.93-32.2l.66-2.34q49.07,23.84,98.14,47.65c1.64.8,4.28,1,3.78,3.39-.62,2.94-3.35,3.91-6.14,4.33-3.26-1.81-5.8.08-8.5,1.55-21.55,11.76-42.19,24.82-60.2,41.68Z" transform="translate(-39.29 -34.71)"/><path class="a17c1210-a53d-48cb-a5eb-35aa422698b1" d="M1431.71,296.2c4.23.17,6.77.39,5.61,6.57a107.36,107.36,0,0,0-.34,38.7c1.78,9.8,6.15,19.86,17.91,23.12,3.89,1.08,6.9,3.31,7.22,7.83a3,3,0,0,1-.72,4.21q-2.21,4.86-4.42,9.72l-26.83-.68c-11.35-15.68-22.78-31.31-34-47.08-3.35-4.71-6.92-6.9-12.3-3.38-15.63-21.16-15.58-21,9.66-27.59C1406.35,304.24,1419,300,1431.71,296.2Z" transform="translate(-39.29 -34.71)"/><path class="b085f165-0414-48de-8d00-9cbf3381eb1c" d="M1454.73,648.84q.46,10.56-9.16,14.95l-73.47-.44c7.23-6.18,7.45-14.45,6.88-23,20-.11,40.09,0,60.13-.44C1446.47,639.79,1451.41,642.57,1454.73,648.84Z" transform="translate(-39.29 -34.71)"/><path class="a17c1210-a53d-48cb-a5eb-35aa422698b1" d="M1521.33,904.57H1397l-47.88,0c-3.74-3.55-3.79-8.28-3.38-12.74,2.67-28.64,4.56-57.35,7.07-86a10.78,10.78,0,0,1,3-7.19c34.37-1.55,68.77-.31,103.16-.66,14.52-.15,29.06-.07,43.59,0,11.17,0,14,1.93,14.8,13.92,1.56,21.7,4.75,43.28,5.25,65,.19,8.66,4,17.33.27,26Z" transform="translate(-39.29 -34.71)"/><path class="a17c1210-a53d-48cb-a5eb-35aa422698b1" d="M1225.06,909.31l-8.29-.74c22.18-30.78,45.4-59.73,62-93,9.9-19.81,23.06-38.77,19.8-62.81-.06-.5.55-1.09.84-1.63l1.67,2.47c-.62,17.14,11.15,29,18.29,42.86,2.9,3.31,8.81-.68,11,4.5,2.92,8.5,1.61,17.3,1.68,26q.27,31.31,0,62.61c0,5.21.64,10.75-3.65,15-20.64,4.65-41.74.49-62.46,3.18C1252.3,909.51,1238.68,908.93,1225.06,909.31Z" transform="translate(-39.29 -34.71)"/><path class="a3b14461-7b5f-4bc1-b433-7fb226f78273" d="M1328.35,904.57q-.15-52.68-.32-105.35c9.57-1.86,19.12-2.37,28.65.25q-3.78,52.54-7.57,105.09c-.64,3.89,1.38,8.3-2.24,11.62-3.39-9.54-10.86-8.3-18.37-6.94Z" transform="translate(-39.29 -34.71)"/><path class="b248e3fb-6da5-4187-be1c-b66525948d42" d="M1645.29,909.25c-7.57,1.6-10.46,6.3-9.13,13.78-3.64-3.32-1.61-7.8-2.37-11.71-6.83-14.81-5-31.05-7.68-46.55-.76-4.43-.63-9-1.63-13.48-3.56-39.45-8.63-78.74-11.87-118.22-.4-5-.86-10,2.78-14.13l11.56-.3c7,14.12,6.27,29.71,7.79,44.68q6.33,62.61,13.08,125.17C1648.6,895.56,1650.83,902.9,1645.29,909.25Z" transform="translate(-39.29 -34.71)"/><path class="a17c1210-a53d-48cb-a5eb-35aa422698b1" d="M1627.27,851.75a461.74,461.74,0,0,1,6.52,59.57c-29.55-1.53-59.1-3-88.65-4.66-1.78-.1-3.49-1.41-5.24-2.16l-1.56-1.6c-1.79-3.08-2.09-6.5-2.12-9.93q-.3-41.07,0-82.13c.07-7.25.92-14.23,11.14-12.86,3.51,1.2,3.52,4.27,2.33,6.55-6.8,13-3.81,27-4.24,40.6-.38,11.84.08,23.71-.12,35.56-.15,8.25,3,12.33,11.63,13.75,19,3.12,38.23,1.26,57.23,3.78,6.69.89,9.75-1.73,7-9.61-3-8.6-2.18-18.06-3.5-27.11C1617,856,1618.35,849.38,1627.27,851.75Z" transform="translate(-39.29 -34.71)"/><path class="bfd969ce-a7d3-4d60-b9b0-fa97cfb7979e" d="M1328.5,909.24c3.9-5.7,9.78-5.71,15.18-4s2.25,7.19,3.19,10.93c-.82,14-1.82,28-2.39,42-.27,6.54-3.57,8.36-9.53,8.38-7.17,0-6.52-4.74-6.51-9.36Z" transform="translate(-39.29 -34.71)"/><path class="a88bbdbe-a10b-4f43-96a8-7883dbb979c5" d="M1539.9,904.5q0,26.36-.05,52.72c0,4.67.53,9.25-6.6,9.4-6.68.13-7-3.52-7.4-8.68-1.26-17.81-3-35.58-4.52-53.37l.21.14c6-4.52,12.1-4.42,18.16-.07Z" transform="translate(-39.29 -34.71)"/><path class="fb539384-9612-4db4-810c-ae02c766b4f7" d="M452.42,650.36,377,650c-.61-4.47-2.56-8.8-1.41-13.45,2.91-5.08,8.18-6.61,13.15-8.28,23-7.7,46.35-14.16,70.68-16.52a57.58,57.58,0,0,1,16.86.75c21.29-3.29,41.42,3.22,61.83,7.29.13,2.78-.08,5.46-2.42,7.45-4.23,3.5-9.34,2.9-14.26,2.94-12.62.11-25.24,0-37.86.06-18,.15-20.22,2.81-16.77,19.91C462,653.29,457.17,647.87,452.42,650.36Z" transform="translate(-39.29 -34.71)"/><path class="f84cbb7d-e173-480b-88a8-a1299319459c" d="M466.77,650.14c-4.81-4.18-8.85-8.8-5.73-15.71,2.95-6.54,8.67-7.56,15.24-7.47,19.79.28,39.59.21,59.38.27-.47,8.41-.19,16.58,7,22.64Z" transform="translate(-39.29 -34.71)"/><path class="fe9cd472-5858-4405-a33d-f23cc3d29a61" d="M508.46,535.3q11.51,10.79,23,21.6c6.73,6.34,13.83,10,22.36,3-4.06,16.48-6.86,33.3-13.46,49.09C533,599.86,520.27,596,516,583.9,507.87,568.57,504.91,552.44,508.46,535.3Z" transform="translate(-39.29 -34.71)"/><path class="f4f87e44-41c1-4219-97b4-207096487e82" d="M620.93,675.14l73.19-.08c-5.62,21.61-14,42.21-23,62.56-1.67,3.77-3.07,7.67-4.6,11.51.61,9.16-6.18,15.22-9.61,22.68-3.33,7.24-7,14.32-10.56,21.47-3.53,6.71-6.93,13.49-10.14,20.36-13.83,24.19-28,48.18-42,72.27-5.77,9.92-5.49,10.13,6,12.94,8.54,2.09,17,4.37,25.63,6.22,10.34,2.92,20.94,5,31,8.81,6.33,2.34,12.78,4.48,17.65,9.53,3.08,4.29,9.32,6.6,8.53,13.36,4.1,15.39,1.86,18.4-13.85,18.38-29.07,0-58.13.12-87.19-.23-12.56-.15-25.1-1.42-37.66-2.07-10.77-.56-14.8-4.71-12.68-15.2,2.25-11.14,5.69-22,8.6-33,.29-13.12,6.68-24.65,9.86-37,2.72-10.65,6.42-21.08,8.77-31.86,4.91-16.64,9.46-33.37,12.94-50.37,5.12-18.79,9.79-37.75,19-55.14,7.53-14.76,13.86-30.11,21.61-44.77,2.1-3.95,3.6-8.41,8.17-10.44Z" transform="translate(-39.29 -34.71)"/><path class="a17c1210-a53d-48cb-a5eb-35aa422698b1" d="M561.32,835.43c-5.1,23.64-10.57,47.17-21.05,69.17l-112.37-.09L426.5,903c-2.17-16.38,1.44-32.48,2.82-48.64,1.77-20.8,5.16-41.46,6.89-62.28.25-3.06,1-6,3.65-8.07,4.19-2.4,8.82-2.32,13.4-2.33q45.86-.12,91.71,0c4.58,0,9.22,0,13.35,2.47,6.78,11.93,3.87,25.16,4.76,37.83A40.39,40.39,0,0,1,561.32,835.43Z" transform="translate(-39.29 -34.71)"/><path class="accde00b-b8a3-4e23-9bc8-a148cafb61bc" d="M336.12,975.65c-4.13-4.54-5-9.43-4.05-15.74,1.67-10.92,1.78-22.07,2.54-33.12h3.62c0,7.67-.11,15.35,0,23,.2,12.5,4.19,16.61,16.33,16.7,14.16.11,28.32-.08,42.48.07,7.23.08,11.69-2.73,12.54-10.26,1.44-12.82,3.1-25.62,4.29-38.46.43-4.56.31-9.15,2.05-13.49l1.41-1.2c3.74-1.59,7.23-1.35,10.34,1.48l.21-.16c-1.67,17.39-3.1,34.81-5.09,52.16-1.24,10.84-12.68,23.11-25.14,21.74C377.28,976.17,356.48,980.72,336.12,975.65Z" transform="translate(-39.29 -34.71)"/><path class="b92bb4cc-2535-476c-be7b-4bc386d6b003" d="M683.05,936.77l-9.26-11.52c7.87-5.68,16.88-2.46,25.37-3.16,6-.49,12.2.31,18-1.86,4.47-1.66,8.17-4.15,8.22-9.66,1.58-12.36,3.22-24.7,4.74-37.06.51-4.14.9-8.38,5.48-10.41,5,3.43,6.54,9.15,9.36,14,3,12.06,1.91,23.56-4.66,34.32-.54,17.07-8.42,25-25.27,25.29C704.38,936.89,693.72,936.77,683.05,936.77Z" transform="translate(-39.29 -34.71)"/><path class="f44b83db-d537-4e57-a77e-6116705e9835" d="M740.32,911.44q2.34-17.16,4.66-34.32c10.76,9.82,4.89,23,6.9,34.51C748,915.73,744.15,913.39,740.32,911.44Z" transform="translate(-39.29 -34.71)"/><path class="a17c1210-a53d-48cb-a5eb-35aa422698b1" d="M1627.27,851.75c-3.88.33-7.23,2.13-6.83,6.19,1.07,10.91,1.09,22.38,4.8,32.42,3.37,9.11-.42,12.43-6.87,11.6-22.68-2.92-45.71-.6-68.22-5-5.41-1.06-8.36-3.65-8.25-10.11.4-23.3.62-46.63-.11-69.91-.24-7.55,7.13-10.76,7.16-17.47,4-3.82,9.66.65,13.69-2.84,15.44-23.76,18.45-51.91,27.58-77.89l25.17.2c2.3,37.17,6.48,74.16,10.77,111.13C1627,837.25,1626.92,844.52,1627.27,851.75Z" transform="translate(-39.29 -34.71)"/><path class="a17c1210-a53d-48cb-a5eb-35aa422698b1" d="M1680.08,612.7c-.93,3.44.68,6.48,1.53,9.64-7,4.43-14.7,1.57-22.06,2.24-4.49.41-9.26-.44-11.81,4.67-4,9.39-1.85,16,5.39,24.17,9.42,10.65,7.3,26.14,8.66,39.75.43,4.21-4.74,2.41-7.28,2.44-19,.24-38.07.2-57.1.24,9.16-39.77,19.69-79.25,26.3-119.58l1.47-9c4-.83,6.43,2,8.76,4.36a229.61,229.61,0,0,0,39.1,31.56C1676.49,605.4,1680.42,607.55,1680.08,612.7Z" transform="translate(-39.29 -34.71)"/><path class="adc1c1be-0d7b-44f1-8fdc-2955c655d1b6" d="M1562.64,796.63c-3.76,4.81-9.23,1.39-13.69,2.83-8.48-1.87-9.14,3-9.11,9.66.15,31.84-.06,63.68-.13,95.52l-18.17.07c-2.44-30.7-5-61.39-7.24-92.1-.73-10-4.41-13.94-15.46-13.75-47.38.81-94.77.5-142.16.61l-28.64-.25c-3-.68-6.86,1.58-8.67-2.74,36,.14,71.9.39,107.85.4C1472.36,796.9,1517.5,796.72,1562.64,796.63Z" transform="translate(-39.29 -34.71)"/><path class="aa9537b1-dc32-40e9-8679-7421cef93e1a" d="M1680.08,612.7c-12.53-9.72-25.21-19.26-37.53-29.25-6.13-5-11.6-10.79-17.37-16.22-4.21-8.55-7.84-17,3.75-23,11.3-7.82,28.24-6.73,40.14,2.57,14.17,11.07,22.23,40.18,15.06,54.35C1680.88,604.34,1684.84,610.05,1680.08,612.7Z" transform="translate(-39.29 -34.71)"/><path class="e1e72ee0-2ada-4ffa-8fb8-d8c5bf792798" d="M1684.13,601.16c-.55-7.58-.73-15.2-1.72-22.72-3.86-29.39-21.14-40.35-53.48-34.2q1.53-19.47,3.07-38.93c18.48,14.65,37.68,28.52,53,46.7,2.65,3.13,4.21,7.17,6.28,10.79,2.26,21.31,5.56,42.53,5.29,64.05-7.27,1.57-10.55-2.42-11.4-8.8C1684.44,612.47,1684.45,606.79,1684.13,601.16Z" transform="translate(-39.29 -34.71)"/><path class="f358516a-4ecd-4ac8-a0ff-abd931d8edfb" d="M287.33,820.15q0-22.23.08-44.47c-2.1-23.14,5.36-43.44,18.41-62.09,4.89-5.78,9.79-11.55,16.45-15.47,14.05-9.37,29.61-11.81,45.93-9.13,17.7,2.92,22.93,13.2,15.82,29.64-3.06,7.06-7.59,13.16-12.17,19.25a402.14,402.14,0,0,1-26.2,31.61,274.07,274.07,0,0,0-17.35,21.24c-5.05,5.26-9.16,11.26-13.4,17.16-7.17,8.5-10.22,19.74-18.37,27.59-3.61,3-6.88,3.63-8-2C287.72,829.1,287.71,824.59,287.33,820.15Z" transform="translate(-39.29 -34.71)"/><path class="a17c1210-a53d-48cb-a5eb-35aa422698b1" d="M326.11,789.3l17-20.34c7.18,1,6.36,10.2,12.56,12.23,6.79,3,15.8-2.15,21.22,5.81,2.3,5.88,1.72,12,1.73,18.11.05,27.83.14,55.67-.06,83.5,0,5.55,1,11.64-4.26,15.89-11,5-22.52,1.43-33.77,2.24a4.68,4.68,0,0,1-3.06-1.21c-3.88-3.47-2-27.16,3-29.36,14.34-6.4,9.22-18.9,8.67-28.95-.45-8-8.82-9.07-15.88-9.65-1.42-.12-2.76-1.23-4.13-1.88C322.79,820.57,321,805.16,326.11,789.3Z" transform="translate(-39.29 -34.71)"/><path class="a17c1210-a53d-48cb-a5eb-35aa422698b1" d="M415.94,904.39c-4.08.15-8.55-.74-12.17.63-10.66,4-11-2.16-10.57-9.63-3.68-3.67-3.38-8.37-2.95-12.88,2.65-27.65,4.49-55.36,6.9-83,.46-5.3,1.28-10.63,5-15,8.51-3.65,17.06-3.51,25.64-.25,3.52,3.7,3.73,8.41,3.11,12.93-4.38,32.17-6.27,64.61-10.73,96.77-.53,3.8-1.11,7.59-3.92,10.55Z" transform="translate(-39.29 -34.71)"/><path class="a9b7f092-6a7b-495f-8efc-51464c73a249" d="M402.49,785.26q-4.65,55.07-9.29,110.13c-3.13,2.52-1.85,6.12-2.3,9.3-5.28,3.88-10.54,3.93-15.78-.08l-.81-.11q.24-59.49.49-119C384,780.17,393.21,780.52,402.49,785.26Z" transform="translate(-39.29 -34.71)"/><path class="accde00b-b8a3-4e23-9bc8-a148cafb61bc" d="M375.12,904.61l15.78.08c1.66,14.07-2,27.87-2.16,41.84-.05,4.18-1.7,6.24-6.07,6.3-4.16,0-7.23-.49-8.42-5.42-2.45-10.15-1.69-20.28-.71-30.45C373.94,912.83,374.59,908.73,375.12,904.61Z" transform="translate(-39.29 -34.71)"/><path class="b27809bd-69e9-4410-995c-cca56c885aff" d="M326.11,789.3q1.5,23.19,3,46.4c-3.27,3.91-7.76,1.79-11.71,2.36-5.63-10.12-5.76-21-4.15-32Z" transform="translate(-39.29 -34.71)"/><path class="b6526dfc-cf26-4d8e-bd4a-92a0574fc209" d="M313.24,806c3.07,10.46,3.91,21.2,4.15,32-6.93-1.07-14.43,2.49-20.86-2.59C300,824.5,306.38,815.12,313.24,806Z" transform="translate(-39.29 -34.71)"/><path class="a17c1210-a53d-48cb-a5eb-35aa422698b1" d="M735.62,863.1l-7,48.29c-1.3,2.77-3.68,3.7-6.53,3.7-21.73,0-43.34-1.85-64.93-4.09-3.88-2-4.66-5.78-5.1-9.63-3.63-31.38-5.57-62.93-9.3-94.31-.6-5,1.72-9.75,1.28-14.73l22.48-43.2Z" transform="translate(-39.29 -34.71)"/><path class="a17c1210-a53d-48cb-a5eb-35aa422698b1" d="M722.05,675.19c9.12-.05,18.24,0,27.37-.18,4.59-.09,7.5,1.4,6.9,6.5-2.7,23.13-4.53,46.37-9,69.27Q734.68,713,722.05,675.19Z" transform="translate(-39.29 -34.71)"/><path class="a899dc75-8bff-4ca8-a2b5-b84cd292e09e" d="M473.83,399.52c1.53,10.12,7.18,18.42,11.71,27.3,9.82,19.24,20.9,38.11,22.77,60.38.2,12.46-5.43,22.31-13.93,30.86,2.92,6.36,3.63,13.06,3.4,20a166.39,166.39,0,0,0,2,33c.68,4.08,1.06,8.37-1.37,12.21-47.47,8-89.91-13.72-134.5-22.75-10.47-13.51-16-29.05-18.8-45.7-.12-.79-.25-1.57-.37-2.35,7.74-4.45,11.41-11.68,14.1-19.81,5-15.17,10.32-30.14,10.92-46.44.55-14.55-3.08-27-14-37-1.9-1.74-4.15-3.51-3.6-6.67l40.49-6.59c4.66,2.36,5,7.33,6.86,11.38,5.58,12.34,14.34,21.41,27.21,26,11.64,4.19,19.23-.81,20.92-13.1,1.06-7.76-2.05-16,2.8-23.31C458.25,397.49,466.28,396.37,473.83,399.52Z" transform="translate(-39.29 -34.71)"/><path class="f4f87e44-41c1-4219-97b4-207096487e82" d="M450.41,396.89c.84,7.94,1.65,15.91.49,23.87-2,14.15-10.66,19.91-24.14,15.74-20-6.17-29.5-21.42-34.14-40.61,5.24-1,5.9-5,6.2-9.32q.81-11.76,1.61-23.54c1.46-3.85,5.34-6.68,4.8-11.37,3.25-10.4,2.89-20.81,1.2-31.52-2.53-16,5.05-23.66,21.33-22.59a6,6,0,0,1,1.13.1c11.88,3,28.69.33,33.83,12.13,7.77,17.87,11.15,38.26,2.32,57.69-6.15,13.53-19,14.67-31.82,14.65C433.39,394.22,442.5,394.83,450.41,396.89Z" transform="translate(-39.29 -34.71)"/><path class="ee7089f3-e77f-45db-a79f-1533a60948a0" d="M352.13,402.48C373.18,418.2,378.48,439,369,471c-3.22,10.89-8,21.31-11.13,32.22-2.07,7.36-6.21,9.85-13.2,9.24-16.5-.61-30.8-7.42-44.54-15.79-1.89-1.83-1.77-4-1.06-6.28,7.25-23.09,14.11-46.34,25.86-67.68,5-9,10.46-17.7,21-21.33Z" transform="translate(-39.29 -34.71)"/><path class="b599e141-9aa3-4f25-ad83-fda843c5a0a6" d="M405.23,351.66c3,5.74-1.24,8.41-4.8,11.37-4.15-9.89-13.38-16.37-17.83-25.87-2.68-5.71-7.63-12.71-.91-18.63,3.93-3.46,14.88,4.34,18.44,12.51-8.77,3.19-8.77,3.19-4,10.67-.34-4.3.28-8.1,4-10.71,5.31,8.29,1.57,16.84.34,25.45C403.76,356.1,403.81,353.25,405.23,351.66Z" transform="translate(-39.29 -34.71)"/><path class="b55d195a-f04e-47cc-99cd-1b79197e3b66" d="M308.23,714c-12.22,18.78-18.78,39.47-20.82,61.68-4.49-8.08-2.13-17-2.73-25.45-1.94-27.2-7.49-53.71-13.68-80.15l5.09,3.3c7.12,1.4,14.32.6,21.46.55,5.23,0,9.51,1.55,10.28,6.73C309.48,691.69,312.07,702.85,308.23,714Z" transform="translate(-39.29 -34.71)"/><path class="eb9010cc-dff6-4b31-8066-bc6db7b05244" d="M1735.15,245.26c-26.93-17.6-35.22-37-28.1-67.74,4.73,6.37,3.14,13,2.45,18.69-1.82,15,2.48,26.81,14.86,35.69,4.64,3.33,8.92,7.16,13.36,10.76Z" transform="translate(-39.29 -34.71)"/><path class="f63a714a-ad02-4844-96c9-bd2c4b559c87" d="M476.25,612.49c-34.61,3.66-68.31,11.1-100.69,24,.94-11.41,1.89-22.83.05-34.24,29.9,3.5,60.14,2.36,90,6.56C469.44,609.4,473.16,609.93,476.25,612.49Z" transform="translate(-39.29 -34.71)"/><path class="bfd13307-ca78-4eec-bf27-b2323cd31514" d="M498.37,583.23c-4-21.56-6.11-43.23-4-65.17q7,8.61,14.08,17.23,3.78,24.3,7.57,48.6c-.58,4.32-2.81,4-6.13,2.65C506.21,585.05,502.23,584.3,498.37,583.23Z" transform="translate(-39.29 -34.71)"/><path class="b7b76cec-2e21-4a7f-bfea-904379c659e0" d="M345.07,514.78q9.4,22.85,18.8,45.7c-9.41-1.55-18.79-3.36-28.24-4.55-4.4-.55-5-2.07-3.56-5.88C336.51,538.34,340.75,526.54,345.07,514.78Z" transform="translate(-39.29 -34.71)"/><path class="be47375e-9cf9-459e-888b-c5887c139a7b" d="M620.6,675Q607,702.56,593.47,730.15c-4.56,4-10.09,5.51-15.92,5.6-17.57.27-35.13,1.08-52.7-.92-20.58-2.33-41.27-.63-61.91-1-8.43-.15-16.84-.1-25-2.66-23.83-7.26-41.69-21.64-52.29-44.43-1.66-3.57-4.87-7.25-1.36-11.55,73.93-.61,147.83-3.65,221.78-2.32C611,673,616.05,672.32,620.6,675Z" transform="translate(-39.29 -34.71)"/><path class="b69e8ea0-43d7-4a37-a749-60c593db49de" d="M384.31,675.19c7.21,23.39,21.81,40.19,44.5,49.77,2,.86,4.57.75,5.76,3.14,2.34,17.18-1.17,33.89-4.2,50.61-.58,3.2-2.71,5.44-6.38,5.34-23.87-.65-47.78,1.57-71.61-1.18-4.85-3.46-5.26-9.89-9.27-13.91,10.63-13.37,21.72-26.41,31.71-40.25,6.14-8.51,14-18.62,7.79-29.19-5.42-9.29-17.12-8-27.07-8.39-11.93-.49-22.15,4.39-32.56,9-7.52-7.51-9.09-16.86-8.33-26.92l69.83-.13A5.24,5.24,0,0,0,384.31,675.19Z" transform="translate(-39.29 -34.71)"/><path class="e1e72ee0-2ada-4ffa-8fb8-d8c5bf792798" d="M1647.74,629.25c.49-6.24,4.78-7,9.79-6.91,8,.09,16.06,0,24.09,0-.11,6.33-5,4.18-8.3,4.54C1664.8,627.78,1655.94,624.91,1647.74,629.25Z" transform="translate(-39.29 -34.71)"/><path class="f4c168c9-24d7-4b83-9821-a8cdc96678e2" d="M720.91,335.51c8.4,0,16.81-.05,25.21,0,3.31,0,7.3-.69,7.67,4.47.28,4-2.21,6.33-5.22,8.2a8.92,8.92,0,0,1-3.28.9c-6.82,1.05-15.43-2.9-19.74,5.3-3.51,6.67,1.7,13.11,2.7,19.7a40.2,40.2,0,0,1,.49,5.68c0,5.65-2.37,10.59-8.2,10.22-6.3-.4-8.73-5.45-7.34-11.73,1.15-5.17,2.68-10.26,3.65-15.46,1.56-8.5-.23-14.5-10.85-13.65a35.39,35.39,0,0,1-10.22-.67c-4.51-1-7.75-4.23-7.69-8.79.08-6.1,5.43-4,8.76-4.12C704.86,335.32,712.89,335.51,720.91,335.51Z" transform="translate(-39.29 -34.71)"/><path class="fe9cd472-5858-4405-a33d-f23cc3d29a61" d="M721.15,319.53c-8.41,0-16.82,0-25.24,0-2.28,0-4.84.09-5.67-2.68-.63-2.13.77-3.53,2.52-4.58a8.58,8.58,0,0,0,1.83-1.37,10.79,10.79,0,0,1,14.54-.9c7.11,5.51,10.21.42,12.51-5.39.93-2.36.35-5.88,4.42-5.09,3,.57,2.37,3.39,2.76,5.57.93,5.27,1.69,11.85,8.51,11.46,6.48-.36,7.74-6.29,7.59-12.11-.08-3,.87-5.3,4.46-5.31s4.13,2.29,4.63,5.22c2.09,12.28-.12,15.15-12.21,15.22C734.92,319.57,728,319.54,721.15,319.53Z" transform="translate(-39.29 -34.71)"/><path class="a17c1210-a53d-48cb-a5eb-35aa422698b1" d="M1645.29,909.25c.15-27.86-5.56-55.19-7.53-82.88-1.91-26.88-5.64-53.64-8.46-80.46-1-9.07-1.58-18.18-2.35-27.27h108.2q-4.44,56.69-8.89,113.38c-1.57,19.66-3.67,39.29-4.7,59a268.46,268.46,0,0,1-2.8,29.45c-13.56,4.54-26.86-.56-40.08-2-10.24-1.07-21.37,1.54-30.86-4.79Z" transform="translate(-39.29 -34.71)"/><path class="f8d8cf77-132b-4607-9bba-6b9bddfeeca9" d="M314.65,673.2q4.17,13.45,8.33,26.92L308.23,714a107,107,0,0,1-2.36-27c.21-8.42-2.92-12.46-12.11-11.92-5.8.34-12.11,2.11-17.67-1.65Z" transform="translate(-39.29 -34.71)"/><path class="b5fd1a8e-48c0-45bf-9954-506e201b7b4d" d="M1245.22,368.21c14.6,15.61,20.94-4,33.09-7.63-6,10.21-14.32,15.05-22,18.77C1252.29,381.33,1248.27,373.35,1245.22,368.21Z" transform="translate(-39.29 -34.71)"/><path class="ef47096a-ce2c-4e6e-a488-44cbb1de7c85" d="M1647.82,913.72c23.91-.45,47.41,3.28,70.94,6.74.1.86.19,1.71.29,2.57,0,13.69-2.69,27.16-2.81,40.91-.11,13-4.77,16.27-18,16.31-10.69,0-21.38,0-32.06,0-7.57,0-13.14-3.78-13.58-11C1651.51,950.66,1647.08,932.4,1647.82,913.72Z" transform="translate(-39.29 -34.71)"/><path class="bf68a4c8-3637-4e68-8dca-a3acdd7be70a" d="M275.55,271.28c10.88,0,19.65,8,20.1,16.53.05,1-.21,2.9-.63,3a67,67,0,0,1-25.94.31c-5.3-.91-4.18-6.37-4.41-10.46C264.09,270.69,270.82,270.94,275.55,271.28Z" transform="translate(-39.29 -34.71)"/><path class="b336c2ee-69e8-4e9e-8378-e0210a1bf0c1" d="M1461.39,376.63l.72-4.21c2-2.07,3.28-4.94,7.1-4.69,4.51.29,9.09-.39,13.57,0,4.11.38,7.57-3.52,12.32-1.28-6.44,10.26-16.49,13.75-27.23,16.35C1462,384.25,1461.62,380.7,1461.39,376.63Z" transform="translate(-39.29 -34.71)"/><path class="b19752d0-dec5-4f53-a86c-e9d534f6c36f" d="M1463.3,299.6c2.89,9-14.07,13.19-3.57,24.06C1448.87,318.37,1449.44,315.86,1463.3,299.6Z" transform="translate(-39.29 -34.71)"/><path class="ef892b6e-e20c-4d4d-a54a-dd46572063dd" d="M1452.94,336.45c6.32-1.52,12.66,1.77,19.1-5C1466.44,341.7,1463.32,342.24,1452.94,336.45Z" transform="translate(-39.29 -34.71)"/><path class="bd7f7544-c87d-4931-b982-ff9cdc1d76e3" d="M1475.21,282.21c10.81-2.43,14.48,1.87,19,10.85C1487.59,287.72,1483.19,284.69,1475.21,282.21Z" transform="translate(-39.29 -34.71)"/><path class="a6a47d26-95b3-442a-8407-70066427b5f6" d="M1443.26,282.77c4.87-1.58,9.15-6.75,15-2.14-5.07.36-9.14,6.79-15,2.12Z" transform="translate(-39.29 -34.71)"/><path class="fe0dd5e9-b91a-4232-89c2-fbd0994c77f2" d="M352.38,782.87c22.1,0,44.2,0,66.3.19,5.86.06,8.28-1.32,9.43-8,2.71-15.61,1.39-31.76,6.46-47,38.82,3.43,77.85.9,116.69,4.22a157.84,157.84,0,0,0,42.21-2.17c-8.08,17.63-13.41,36.21-18.89,54.74-5.15,4.68-10.51,4.26-16,.68-39.75-1.28-79.5-.89-119.25-.21-3.87,3-7.72,3-11.52-.13l-25.31,0-27.69.27C367.49,783.31,359.44,787.19,352.38,782.87Z" transform="translate(-39.29 -34.71)"/><path class="a17c1210-a53d-48cb-a5eb-35aa422698b1" d="M625.61,907.26c-11.87-2.47-23.73-5-35.61-7.39-5.88-1.19-5.1-4.43-2.8-8.3l47.16-79.26c5,4.53,5.29,10.77,5.71,16.76,1.41,20,4.23,39.94,5.42,60C646.73,910.1,647.19,910.07,625.61,907.26Z" transform="translate(-39.29 -34.71)"/><path class="a3f441c8-134f-466e-b2e0-e5d191cc2f8e" d="M625.61,907.26c.38,0,.76-.06,1.14-.06,16.62-.32,16-.29,15-17-1.55-26.08-4.46-52-7.44-77.94,1.85-7.33,6.33-13.38,9.66-20,3.89,19.36,4.19,39.11,6.63,58.62s1.89,39.31,6.72,58.52c2,2.22,2.1,4.47.1,6.75Z" transform="translate(-39.29 -34.71)"/><path class="e1bdd73a-13c2-4fcd-927c-38032f06ea77" d="M657.47,916.21c0-2.25-.07-4.5-.1-6.75,22-1.71,43.85,2.48,65.82,2.77a31.89,31.89,0,0,0,5.42-.83c0,12.67-9.82,13.06-18.35,13.57-12.12.74-24.31.25-36.47.28Z" transform="translate(-39.29 -34.71)"/><path class="a3b14461-7b5f-4bc1-b433-7fb226f78273" d="M558.57,785.57l16-.68a271.43,271.43,0,0,1-13.26,50.55C561.2,818.77,557.36,802.31,558.57,785.57Z" transform="translate(-39.29 -34.71)"/><path class="b248e3fb-6da5-4187-be1c-b66525948d42" d="M427.8,785.23l11.52.13c.22,27.92-6.12,55.23-7.68,83-.68,12.14-2.6,24.21-3.95,36.3l-11.49-.12c3.37-33.32,6.52-66.67,10.3-99.94C427.24,798.12,427.52,791.7,427.8,785.23Z" transform="translate(-39.29 -34.71)"/><path class="fe5d83ce-e747-4ff1-9681-1d3303364ca0" d="M453.57,355.4c-4.72,3.75-9.25,4.55-13.39-.69C444.67,355.67,449.15,354.48,453.57,355.4Z" transform="translate(-39.29 -34.71)"/><path class="b30149bf-2433-4c75-bf8f-8253cb1d7f46" d="M400.11,331c-2.63,5.3-2,10.76-.79,16.63-2.57-6.06-13.93-5.94-10.74-14.95,1.95-5.54,7.22-4.17,11.55-1.64Z" transform="translate(-39.29 -34.71)"/></svg>